PathFileType	4	(X/Y/Z)	C:\Users\ebm\Documents\Erivelton\Erivelton2\wc6.trc
DataRate	CameraRate	NumFrames	NumMarkers	Units	OrigDataRate	OrigDataStartFrame	OrigNumFrames
150.00	150.00	      12	28	mm	150.00	866	      1154
Frame#	Time	IJ			PX			C7			T8			RAC			RAS			RPS			RAI			RPI			RLE			RME			RRS			RUS			R3M			R5M			LAC			LAS			LPS			LAI			LPI			LLE			LME			LRS			LUS			L3M			L5M			RW			LW			V_mid_elbow_r			V_mid_elbow_l			V_mid_wrist_r			V_mid_wrist_l			V_mid_trunk_low			V_mid_trunk_upp			
		X1	Y1	Z1	X2	Y2	Z2	X3	Y3	Z3	X4	Y4	Z4	X5	Y5	Z5	X6	Y6	Z6	X7	Y7	Z7	X8	Y8	Z8	X9	Y9	Z9	X10	Y10	Z10	X11	Y11	Z11	X12	Y12	Z12	X13	Y13	Z13	X14	Y14	Z14	X15	Y15	Z15	X16	Y16	Z16	X17	Y17	Z17	X18	Y18	Z18	X19	Y19	Z19	X20	Y20	Z20	X21	Y21	Z21	X22	Y22	Z22	X23	Y23	Z23	X24	Y24	Z24	X25	Y25	Z25	X26	Y26	Z26	X27	Y27	Z27	X28	Y28	Z28	

866	5.767	3084.71216	1013.15454	-39.49092	3055.96216	844.30365	-19.30541	2975.74121	1132.50879	-59.77843	2871.01367	1005.77325	-44.26094	3022.04248	1073.00708	157.92082	3015.98657	887.52863	229.97827	2968.87231	901.16418	240.92749	3010.34009	815.24664	259.44711	2959.11694	827.02930	272.33670	2961.92285	759.70117	288.35178	2929.45801	736.61493	219.79678	3146.35669	552.74933	265.00854	3101.30347	544.86322	304.11551	3155.09155	471.57797	303.21774	3117.73804	469.77081	315.15628	3040.05078	1047.85706	-234.52921	3013.87720	894.01923	-315.62299	2965.75391	897.37946	-311.20981	3013.12256	818.33569	-345.17798	2958.40820	818.01306	-339.72665	2990.80225	733.81238	-373.08047	2941.61011	716.05859	-316.98276	3159.98462	525.78357	-328.75162	3115.77979	501.95328	-367.64307	3166.49048	435.54178	-359.85049	3127.32544	441.46262	-367.88184	2919.48535	298.84125	290.72122	2928.08716	301.92081	-338.14880	
867	5.773	3094.75488	1013.62091	-39.02289	3066.72510	844.67108	-18.80672	2985.40723	1132.55408	-59.56105	2881.26074	1005.21771	-43.92221	3030.63867	1074.66333	158.39717	3022.49170	889.76208	231.65186	2975.44141	904.05768	241.70796	3015.55005	817.84094	261.73749	2964.35620	830.33405	273.81223	2966.57153	762.81805	290.49078	2934.13428	739.63599	221.96741	3151.13867	556.60742	265.93060	3106.68213	548.32355	305.33115	3161.77686	476.09879	304.38464	3124.28687	473.28879	315.86169	3049.35522	1049.05432	-234.05183	3021.41455	896.47644	-316.00397	2972.70947	900.44171	-311.45853	3019.37158	821.14441	-346.50443	2964.69922	821.44250	-340.68228	2996.02246	736.92175	-374.97202	2946.59351	719.09570	-318.86023	3166.16528	530.61017	-328.67221	3122.59082	505.93094	-367.45377	3174.98291	440.88663	-359.76340	3135.55469	445.82095	-367.83609	2931.22363	298.64059	291.05405	2939.48877	301.86032	-337.86230	
868	5.780	3104.71143	1013.89514	-38.63247	3077.73389	844.99976	-18.21630	2995.01343	1132.49377	-59.36721	2891.46021	1004.66492	-43.60776	3039.45361	1076.03503	158.48900	3029.53320	892.21100	233.12090	2981.99609	906.99994	242.54521	3020.67065	820.53546	264.12039	2969.60645	833.83105	275.26123	2971.11304	766.19183	292.74124	2938.79590	742.71869	224.07507	3156.31104	560.76068	267.21652	3111.91406	551.76868	306.56177	3167.80127	480.01425	305.27103	3130.60059	476.77591	316.47842	3058.70752	1050.29993	-233.60934	3028.73706	899.05273	-316.52982	2980.12085	903.51202	-311.49274	3025.39307	824.04401	-347.76489	2970.79614	825.12476	-341.50888	3001.06982	740.20953	-376.86172	2951.63672	722.24530	-320.63608	3172.48389	535.58698	-328.84210	3129.08545	509.97101	-367.42477	3182.43921	445.89236	-359.18719	3142.49976	449.35840	-367.07639	2942.80811	298.46667	291.30511	2950.91138	301.74237	-337.63452	
869	5.787	3114.72852	1014.21204	-38.11131	3088.38892	845.23389	-17.76738	3004.71045	1132.50171	-59.16387	2901.46899	1004.16486	-43.32637	3048.30371	1077.38916	158.60269	3035.95410	894.49506	234.69768	2988.49756	909.99652	243.36314	3025.75928	823.30396	266.38928	2974.79102	837.36780	276.69336	2975.63208	769.57092	294.97830	2943.18408	745.92517	226.25072	3161.27539	564.96149	268.61371	3116.53198	555.26514	308.08368	3173.83203	484.25916	306.20016	3136.59692	480.20514	317.11288	3068.04541	1051.41077	-233.15086	3035.89380	901.59015	-316.81067	2987.48267	906.61908	-311.38370	3031.51953	827.08746	-348.97717	2976.88428	828.81812	-342.20642	3005.97900	743.56488	-378.60120	2956.43384	725.51697	-322.28247	3178.51123	540.76129	-328.65228	3135.50952	514.09222	-367.18423	3190.36768	451.59796	-359.00024	3150.95093	454.10931	-366.95987	2954.32031	298.34872	291.49634	2962.25586	301.66214	-337.44135	
870	5.793	3124.95581	1014.47412	-37.57315	3099.30762	845.49042	-17.18810	3014.41577	1132.35486	-58.81472	2911.86523	1003.54797	-43.04133	3057.27393	1078.63367	158.63939	3042.49561	896.73444	236.05986	2995.10962	913.08844	244.18622	3030.82397	826.09021	268.58533	2980.01538	840.97308	278.11734	2980.14209	773.10645	297.12802	2947.65186	749.26392	228.31604	3165.89868	569.04694	269.97485	3121.38013	558.75977	309.28094	3179.52808	488.47302	307.10892	3142.36426	483.56671	317.60342	3077.39893	1052.65845	-232.60533	3042.92529	904.28107	-317.11395	2994.76392	909.79608	-311.20227	3037.27466	829.72260	-349.76541	2982.76196	832.83197	-342.70313	3010.93018	746.97241	-380.16611	2961.22729	728.89642	-323.78476	3184.09912	545.78357	-328.52731	3141.83301	518.36548	-366.93866	3198.46729	457.49872	-358.67319	3158.18286	458.48767	-366.56741	2966.12793	298.15341	291.64243	2973.78003	301.48956	-337.22232	
871	5.800	3135.10449	1014.53296	-37.08459	3110.11035	845.63757	-16.63590	3024.20020	1132.26318	-58.57114	2922.05249	1002.96320	-42.80690	3066.24927	1079.93665	158.64607	3048.12378	899.08765	237.92294	3001.65527	916.19305	244.97876	3035.88721	828.98566	270.75717	2985.15698	844.68140	279.58405	2984.50195	776.76599	299.30872	2951.81616	752.86877	230.66060	3170.62793	573.52698	271.50641	3126.28589	562.09839	310.09518	3185.07813	492.76910	307.91290	3147.91284	487.00757	317.97208	3086.59766	1053.83765	-232.13608	3050.13794	907.04236	-317.31689	3002.00928	912.99371	-310.86981	3043.09521	833.23566	-350.93173	2989.01538	837.64771	-344.09412	3015.51880	750.56451	-381.67157	2965.75977	732.42999	-325.11249	3189.70581	551.06616	-328.35468	3147.98169	522.78949	-366.55167	3205.99414	463.32043	-358.32550	3165.78906	463.27774	-366.22809	2977.97461	298.01636	291.80872	2985.40674	301.20068	-336.98999	
872	5.807	3145.13965	1014.51343	-36.72331	3120.61401	845.39868	-16.25740	3034.07642	1132.09326	-58.29770	2932.15942	1002.43390	-42.55440	3075.20288	1081.09558	158.61084	3054.52710	901.46704	239.31564	3008.23389	919.38434	245.81863	3040.79663	831.91138	272.82050	2990.27539	848.55432	280.87207	2988.80176	780.54535	301.44977	2956.07495	756.22272	232.51743	3174.83105	577.36981	272.45605	3130.74487	565.63800	311.26367	3190.45532	497.12762	308.72989	3153.13843	490.48187	318.31549	3095.86768	1055.09692	-231.58557	3057.17090	909.82990	-317.34311	3009.23413	916.28015	-310.38834	3048.67798	836.48651	-351.80270	2994.85083	841.51721	-344.41083	3020.23730	754.22668	-382.92749	2970.39136	736.04492	-326.18701	3194.98169	556.24408	-327.88190	3153.91772	527.27496	-366.28619	3213.36548	469.32852	-357.97931	3173.26318	468.24362	-366.06512	2989.76367	297.82251	291.94968	2997.22510	301.11261	-336.87100	
873	5.813	3155.40967	1014.45209	-36.23373	3131.49756	845.54346	-15.62576	3043.87183	1131.95825	-57.96349	2942.47949	1001.83331	-42.31535	3084.30273	1082.22546	158.57445	3060.87842	903.85321	240.80891	3014.85986	922.55237	246.50383	3045.67749	834.89215	274.88223	2995.36377	852.32709	282.24854	2993.00781	784.37280	303.38065	2960.97949	759.72437	233.93105	3178.97217	581.48969	273.58029	3135.04761	569.25940	312.36615	3195.46387	501.46313	309.46442	3158.26611	494.03479	318.62396	3105.02881	1056.40332	-231.03729	3064.26660	912.69781	-317.30347	3016.12207	919.43103	-309.82050	3055.12329	840.00830	-352.27991	3000.51221	845.36359	-344.42911	3024.75293	758.00311	-384.13840	2974.74658	740.02557	-327.27774	3200.13916	561.50562	-327.36575	3159.81689	531.92615	-365.98453	3220.43994	475.33356	-357.43063	3180.45288	473.21982	-365.74289	3001.46606	297.67639	292.16245	3009.27979	300.84290	-336.60596	
874	5.820	3165.52734	1014.30884	-35.80542	3142.13403	845.59778	-14.89760	3053.84985	1131.79016	-57.59223	2952.57104	1001.34082	-42.14035	3093.35327	1083.30786	158.46385	3067.24121	906.13483	242.09866	3021.51489	925.75220	247.20503	3050.46069	837.82751	276.72678	3000.50854	856.25684	283.44916	2997.05908	788.34290	305.38870	2964.34277	763.75708	236.23502	3183.13403	585.82355	274.80005	3138.92896	573.03137	313.66580	3200.37866	505.87817	310.17050	3163.25000	497.67697	318.97287	3114.26196	1057.75732	-230.45233	3071.03931	915.50671	-317.18570	3023.60352	922.95410	-309.10471	3060.69043	843.39557	-352.83188	3006.20190	849.39966	-344.48019	3029.25195	761.89777	-385.09424	2979.46167	743.76410	-327.80182	3205.29956	566.83044	-326.79156	3165.54248	536.57513	-365.52380	3227.20142	481.25696	-357.01706	3187.35352	478.21674	-365.41528	3013.31299	297.53952	292.33618	3020.87524	300.85135	-336.56125	
875	5.827	3175.62915	1014.04205	-35.34136	3152.80005	845.35797	-14.38491	3063.94141	1131.67004	-57.18906	2962.82935	1000.82794	-41.82573	3102.33276	1084.30603	158.39467	3074.13794	908.72388	243.42603	3028.04517	928.92133	247.88814	3055.26440	840.82239	278.52435	3005.55664	860.20166	284.66739	3001.16675	792.31793	307.27380	2968.16870	767.76813	238.06421	3186.99023	590.01337	275.65335	3142.96851	576.82666	314.71558	3205.04565	510.25415	310.84201	3167.93286	501.38443	319.27896	3123.48584	1059.09851	-229.75642	3077.91626	918.42285	-317.27905	3030.36646	926.29547	-308.33420	3066.09131	846.86298	-353.35461	3011.78394	853.40076	-344.24625	3033.74023	765.76587	-385.86212	2984.11475	747.70538	-328.20288	3209.98755	571.92133	-326.10379	3171.10571	541.26288	-365.19980	3233.77197	487.26733	-356.60202	3193.91553	483.27182	-365.05457	3024.90625	297.42325	292.57721	3032.54761	300.61032	-336.40079	
876	5.833	3186.00684	1013.85040	-34.94394	3163.57959	845.33875	-13.91302	3074.02466	1131.56335	-56.66349	2972.79956	1000.35785	-41.59365	3111.45386	1085.28613	158.36392	3080.39917	911.00684	244.60049	3034.64551	932.03448	248.48322	3059.97046	843.86963	280.19415	3010.53418	864.08942	285.73575	3005.19775	796.37085	308.88446	2972.28540	771.65826	239.65521	3190.88574	594.34125	276.62344	3147.30811	580.64203	315.21600	3209.63208	514.67163	311.48984	3172.71240	505.24631	319.66229	3132.58447	1060.46509	-229.05666	3084.61475	921.23450	-317.16562	3037.87183	929.74609	-307.51294	3071.46631	850.38177	-353.85571	3017.32471	857.43188	-343.86438	3038.03125	769.81940	-386.61252	2988.92432	751.71106	-328.75500	3214.81128	576.97192	-325.41214	3176.32178	545.95569	-364.60648	3240.12012	493.09335	-355.90396	3200.41675	488.37753	-364.64890	3036.59668	297.40973	292.49347	3044.23022	300.46967	-336.20560	
877	5.840	3196.18359	1013.56226	-34.47906	3174.21289	845.08984	-13.68771	3084.20166	1131.48242	-56.22013	2983.25146	999.85852	-41.21137	3120.62354	1086.13733	158.35509	3086.57715	913.33209	245.81407	3041.16626	935.16913	249.08554	3064.54102	846.91864	281.70648	3015.64136	868.10614	286.71100	3009.09766	800.48767	310.56107	2975.94946	775.83099	241.28029	3194.60693	598.54718	277.43759	3151.18188	584.41595	316.03772	3214.05371	519.06543	312.02695	3177.17212	509.10724	320.00861	3141.84546	1061.82861	-228.31560	3091.46948	924.16992	-316.93445	3044.96802	933.10699	-306.62552	3076.09302	853.85693	-353.98315	3022.85791	861.45062	-343.38248	3042.39551	773.77429	-387.10413	2993.29419	755.93048	-328.98978	3219.69385	581.93713	-324.80801	3181.44019	550.61865	-364.08493	3246.10962	498.76678	-355.46237	3206.64600	493.37485	-364.14984	3048.27686	297.31894	292.54886	3055.75439	300.35901	-336.09244	
